<svg width="120" height="120" viewBox="0 0 120 120" fill="none" xmlns="http://www.w3.org/2000/svg">
<path d="M28.9962 18.8235C40.5018 18.8129 46.9923 19.232 58.7301 21.6993L56.9935 27.2421C57.0235 27.3211 57.0032 27.391 56.9281 27.4509L56.9935 27.2421C56.3034 25.4263 28.9962 18.8235 28.9962 18.8235Z" fill="#2B8A3E"/>
<path d="M56.7375 1.46928L50.4253 4.99187L55.0296 16.9626L59.6339 28.9333L61.8845 24.6546L56.7375 1.46928Z" fill="#2B8A3E"/>
<path d="M89.3546 14.1984C79.4722 20.8914 73.5147 24.2379 61.2028 28.5646L57.708 21.9613C57.6112 21.899 57.5657 21.8167 57.5764 21.7126L57.708 21.9613C59.9353 23.3934 89.3546 14.1984 89.3546 14.1984Z" fill="#2B8A3E"/>
<path d="M120 72.549C120 107.451 93.1737 120 60.0818 120C26.9898 120 2.41619 105.882 0.163519 72.549C-2.08915 39.2157 18.9865 18.7263 60.0818 25.0981C95.7382 19.4294 120 37.647 120 72.549Z" fill="#C92A2A"/>
<path d="M57.8799 28.9644L58.193 29.06C58.089 29.091 57.9846 29.1224 57.8799 29.1541L57.8799 28.9644Z" fill="#2B8A3E"/>
<path d="M57.9343 28.976L57.9707 22.4078C71.5388 22.5836 78.7125 23.7491 91.167 26.6668C78.2153 26.8232 70.7337 25.2448 58.2566 29.0748L57.9343 28.976Z" fill="#2B8A3E"/>
<path d="M25.3922 25.8826C37.6953 22.9992 44.7942 21.8875 58.2695 21.9473L57.8444 28.9457C45.5383 24.7637 38.1593 26.2819 25.3922 25.8826Z" fill="#2B8A3E"/>
</svg>
